<mxfile host="app.diagrams.net" modified="2023-04-10T17:45:42.367Z" agent="Mozilla/5.0 (Windows NT 10.0; Win64; x64; rv:109.0) Gecko/20100101 Firefox/111.0" version="21.1.5" etag="2NJZ31BnNCebh18nhCjn" type="github">
  <diagram name="PÃ¡gina-1" id="z1YvMdUqDsmFMNZpBdC2">
    <mxGraphModel>
      <root>
        <mxCell id="0" />
        <mxCell id="1" parent="0" />
      </root>
    </mxGraphModel>
  </diagram>
</mxfile>
